<?xml version="1.0" encoding="utf-8" standalone="no"?>
<!DOCTYPE svg PUBLIC "-//W3C//DTD SVG 1.1//EN"
  "http://www.w3.org/Graphics/SVG/1.1/DTD/svg11.dtd">
<svg xmlns:xlink="http://www.w3.org/1999/xlink" width="984.321875pt" height="266.4pt" viewBox="0 0 984.321875 266.4" xmlns="http://www.w3.org/2000/svg" version="1.1">
 <metadata>
  <rdf:RDF xmlns:dc="http://purl.org/dc/elements/1.1/" xmlns:cc="http://creativecommons.org/ns#" xmlns:rdf="http://www.w3.org/1999/02/22-rdf-syntax-ns#">
   <cc:Work>
    <dc:type rdf:resource="http://purl.org/dc/dcmitype/StillImage"/>
    <dc:date>2026-04-05T03:12:41.190136</dc:date>
    <dc:format>image/svg+xml</dc:format>
    <dc:creator>
     <cc:Agent>
      <dc:title>Matplotlib v3.10.8, https://matplotlib.org/</dc:title>
     </cc:Agent>
    </dc:creator>
   </cc:Work>
  </rdf:RDF>
 </metadata>
 <defs>
  <style type="text/css">*{stroke-linejoin: round; stroke-linecap: butt}</style>
 </defs>
 <g id="figure_1">
  <g id="patch_1">
   <path d="M 0 266.4 
L 984.321875 266.4 
L 984.321875 0 
L 0 0 
z
" style="fill: #ffffff"/>
  </g>
  <g id="axes_1">
   <g id="patch_2">
    <path d="M 237.345738 201.24 
L 345.777738 201.24 
Q 356.620938 201.24 356.620938 196.2 
L 356.620938 70.2 
Q 356.620938 65.16 345.777738 65.16 
L 237.345738 65.16 
Q 226.502538 65.16 226.502538 70.2 
L 226.502538 196.2 
Q 226.502538 201.24 237.345738 201.24 
z
" clip-path="url(#pbeb1749fc6)" style="fill: #dcecff; stroke: #222222; stroke-width: 1.5; stroke-linejoin: miter"/>
   </g>
   <g id="patch_3">
    <path d="M 378.307338 201.24 
L 486.739337 201.24 
Q 497.582538 201.24 497.582538 196.2 
L 497.582538 70.2 
Q 497.582538 65.16 486.739337 65.16 
L 378.307338 65.16 
Q 367.464137 65.16 367.464137 70.2 
L 367.464137 196.2 
Q 367.464137 201.24 378.307338 201.24 
z
" clip-path="url(#pbeb1749fc6)" style="fill: #e7f7e1; stroke: #222222; stroke-width: 1.5; stroke-linejoin: miter"/>
   </g>
   <g id="patch_4">
    <path d="M 519.268937 201.24 
L 627.700938 201.24 
Q 638.544138 201.24 638.544138 196.2 
L 638.544138 70.2 
Q 638.544138 65.16 627.700938 65.16 
L 519.268937 65.16 
Q 508.425738 65.16 508.425738 70.2 
L 508.425738 196.2 
Q 508.425738 201.24 519.268937 201.24 
z
" clip-path="url(#pbeb1749fc6)" style="fill: #fff1d9; stroke: #222222; stroke-width: 1.5; stroke-linejoin: miter"/>
   </g>
   <g id="patch_5">
    <path d="M 660.230537 213.84 
L 746.976137 213.84 
Q 757.819337 213.84 757.819337 208.8 
L 757.819337 57.6 
Q 757.819337 52.56 746.976137 52.56 
L 660.230537 52.56 
Q 649.387337 52.56 649.387337 57.6 
L 649.387337 208.8 
Q 649.387337 213.84 660.230537 213.84 
z
" clip-path="url(#pbeb1749fc6)" style="fill: #f3e5ff; stroke: #222222; stroke-width: 1.5; stroke-linejoin: miter"/>
   </g>
   <g id="text_1">
    <!-- Frank -->
    <g transform="translate(272.576425 123.073875) scale(0.12 -0.12)">
     <defs>
      <path id="DejaVuSans-Bold-46" d="M 588 4666 
L 3834 4666 
L 3834 3756 
L 1791 3756 
L 1791 2888 
L 3713 2888 
L 3713 1978 
L 1791 1978 
L 1791 0 
L 588 0 
L 588 4666 
z
" transform="scale(0.015625)"/>
      <path id="DejaVuSans-Bold-72" d="M 3138 2547 
Q 2991 2616 2845 2648 
Q 2700 2681 2553 2681 
Q 2122 2681 1889 2404 
Q 1656 2128 1656 1613 
L 1656 0 
L 538 0 
L 538 3500 
L 1656 3500 
L 1656 2925 
Q 1872 3269 2151 3426 
Q 2431 3584 2822 3584 
Q 2878 3584 2943 3579 
Q 3009 3575 3134 3559 
L 3138 2547 
z
" transform="scale(0.015625)"/>
      <path id="DejaVuSans-Bold-61" d="M 2106 1575 
Q 1756 1575 1579 1456 
Q 1403 1338 1403 1106 
Q 1403 894 1545 773 
Q 1688 653 1941 653 
Q 2256 653 2472 879 
Q 2688 1106 2688 1447 
L 2688 1575 
L 2106 1575 
z
M 3816 1997 
L 3816 0 
L 2688 0 
L 2688 519 
Q 2463 200 2181 54 
Q 1900 -91 1497 -91 
Q 953 -91 614 226 
Q 275 544 275 1050 
Q 275 1666 698 1953 
Q 1122 2241 2028 2241 
L 2688 2241 
L 2688 2328 
Q 2688 2594 2478 2717 
Q 2269 2841 1825 2841 
Q 1466 2841 1156 2769 
Q 847 2697 581 2553 
L 581 3406 
Q 941 3494 1303 3539 
Q 1666 3584 2028 3584 
Q 2975 3584 3395 3211 
Q 3816 2838 3816 1997 
z
" transform="scale(0.015625)"/>
      <path id="DejaVuSans-Bold-6e" d="M 4056 2131 
L 4056 0 
L 2931 0 
L 2931 347 
L 2931 1631 
Q 2931 2084 2911 2256 
Q 2891 2428 2841 2509 
Q 2775 2619 2662 2680 
Q 2550 2741 2406 2741 
Q 2056 2741 1856 2470 
Q 1656 2200 1656 1722 
L 1656 0 
L 538 0 
L 538 3500 
L 1656 3500 
L 1656 2988 
Q 1909 3294 2193 3439 
Q 2478 3584 2822 3584 
Q 3428 3584 3742 3212 
Q 4056 2841 4056 2131 
z
" transform="scale(0.015625)"/>
      <path id="DejaVuSans-Bold-6b" d="M 538 4863 
L 1656 4863 
L 1656 2216 
L 2944 3500 
L 4244 3500 
L 2534 1894 
L 4378 0 
L 3022 0 
L 1656 1459 
L 1656 0 
L 538 0 
L 538 4863 
z
" transform="scale(0.015625)"/>
     </defs>
     <use xlink:href="#DejaVuSans-Bold-46"/>
     <use xlink:href="#DejaVuSans-Bold-72" transform="translate(61.935547 0)"/>
     <use xlink:href="#DejaVuSans-Bold-61" transform="translate(111.251953 0)"/>
     <use xlink:href="#DejaVuSans-Bold-6e" transform="translate(178.732422 0)"/>
     <use xlink:href="#DejaVuSans-Bold-6b" transform="translate(249.923828 0)"/>
    </g>
    <!-- Benchmark packet -->
    <g transform="translate(228.810175 136.51125) scale(0.12 -0.12)">
     <defs>
      <path id="DejaVuSans-Bold-42" d="M 2456 2859 
Q 2741 2859 2887 2984 
Q 3034 3109 3034 3353 
Q 3034 3594 2887 3720 
Q 2741 3847 2456 3847 
L 1791 3847 
L 1791 2859 
L 2456 2859 
z
M 2497 819 
Q 2859 819 3042 972 
Q 3225 1125 3225 1434 
Q 3225 1738 3044 1889 
Q 2863 2041 2497 2041 
L 1791 2041 
L 1791 819 
L 2497 819 
z
M 3616 2497 
Q 4003 2384 4215 2081 
Q 4428 1778 4428 1338 
Q 4428 663 3972 331 
Q 3516 0 2584 0 
L 588 0 
L 588 4666 
L 2394 4666 
Q 3366 4666 3802 4372 
Q 4238 4078 4238 3431 
Q 4238 3091 4078 2852 
Q 3919 2613 3616 2497 
z
" transform="scale(0.015625)"/>
      <path id="DejaVuSans-Bold-65" d="M 4031 1759 
L 4031 1441 
L 1416 1441 
Q 1456 1047 1700 850 
Q 1944 653 2381 653 
Q 2734 653 3104 758 
Q 3475 863 3866 1075 
L 3866 213 
Q 3469 63 3072 -14 
Q 2675 -91 2278 -91 
Q 1328 -91 801 392 
Q 275 875 275 1747 
Q 275 2603 792 3093 
Q 1309 3584 2216 3584 
Q 3041 3584 3536 3087 
Q 4031 2591 4031 1759 
z
M 2881 2131 
Q 2881 2450 2695 2645 
Q 2509 2841 2209 2841 
Q 1884 2841 1681 2658 
Q 1478 2475 1428 2131 
L 2881 2131 
z
" transform="scale(0.015625)"/>
      <path id="DejaVuSans-Bold-63" d="M 3366 3391 
L 3366 2478 
Q 3138 2634 2908 2709 
Q 2678 2784 2431 2784 
Q 1963 2784 1702 2511 
Q 1441 2238 1441 1747 
Q 1441 1256 1702 982 
Q 1963 709 2431 709 
Q 2694 709 2930 787 
Q 3166 866 3366 1019 
L 3366 103 
Q 3103 6 2833 -42 
Q 2563 -91 2291 -91 
Q 1344 -91 809 395 
Q 275 881 275 1747 
Q 275 2613 809 3098 
Q 1344 3584 2291 3584 
Q 2566 3584 2833 3536 
Q 3100 3488 3366 3391 
z
" transform="scale(0.015625)"/>
      <path id="DejaVuSans-Bold-68" d="M 4056 2131 
L 4056 0 
L 2931 0 
L 2931 347 
L 2931 1625 
Q 2931 2084 2911 2256 
Q 2891 2428 2841 2509 
Q 2775 2619 2662 2680 
Q 2550 2741 2406 2741 
Q 2056 2741 1856 2470 
Q 1656 2200 1656 1722 
L 1656 0 
L 538 0 
L 538 4863 
L 1656 4863 
L 1656 2988 
Q 1909 3294 2193 3439 
Q 2478 3584 2822 3584 
Q 3428 3584 3742 3212 
Q 4056 2841 4056 2131 
z
" transform="scale(0.015625)"/>
      <path id="DejaVuSans-Bold-6d" d="M 3781 2919 
Q 3994 3244 4286 3414 
Q 4578 3584 4928 3584 
Q 5531 3584 5847 3212 
Q 6163 2841 6163 2131 
L 6163 0 
L 5038 0 
L 5038 1825 
Q 5041 1866 5042 1909 
Q 5044 1953 5044 2034 
Q 5044 2406 4934 2573 
Q 4825 2741 4581 2741 
Q 4263 2741 4089 2478 
Q 3916 2216 3909 1719 
L 3909 0 
L 2784 0 
L 2784 1825 
Q 2784 2406 2684 2573 
Q 2584 2741 2328 2741 
Q 2006 2741 1831 2477 
Q 1656 2213 1656 1722 
L 1656 0 
L 531 0 
L 531 3500 
L 1656 3500 
L 1656 2988 
Q 1863 3284 2130 3434 
Q 2397 3584 2719 3584 
Q 3081 3584 3359 3409 
Q 3638 3234 3781 2919 
z
" transform="scale(0.015625)"/>
      <path id="DejaVuSans-Bold-20" transform="scale(0.015625)"/>
      <path id="DejaVuSans-Bold-70" d="M 1656 506 
L 1656 -1331 
L 538 -1331 
L 538 3500 
L 1656 3500 
L 1656 2988 
Q 1888 3294 2169 3439 
Q 2450 3584 2816 3584 
Q 3463 3584 3878 3070 
Q 4294 2556 4294 1747 
Q 4294 938 3878 423 
Q 3463 -91 2816 -91 
Q 2450 -91 2169 54 
Q 1888 200 1656 506 
z
M 2400 2772 
Q 2041 2772 1848 2508 
Q 1656 2244 1656 1747 
Q 1656 1250 1848 986 
Q 2041 722 2400 722 
Q 2759 722 2948 984 
Q 3138 1247 3138 1747 
Q 3138 2247 2948 2509 
Q 2759 2772 2400 2772 
z
" transform="scale(0.015625)"/>
      <path id="DejaVuSans-Bold-74" d="M 1759 4494 
L 1759 3500 
L 2913 3500 
L 2913 2700 
L 1759 2700 
L 1759 1216 
Q 1759 972 1856 886 
Q 1953 800 2241 800 
L 2816 800 
L 2816 0 
L 1856 0 
Q 1194 0 917 276 
Q 641 553 641 1216 
L 641 2700 
L 84 2700 
L 84 3500 
L 641 3500 
L 641 4494 
L 1759 4494 
z
" transform="scale(0.015625)"/>
     </defs>
     <use xlink:href="#DejaVuSans-Bold-42"/>
     <use xlink:href="#DejaVuSans-Bold-65" transform="translate(76.220703 0)"/>
     <use xlink:href="#DejaVuSans-Bold-6e" transform="translate(144.042969 0)"/>
     <use xlink:href="#DejaVuSans-Bold-63" transform="translate(215.234375 0)"/>
     <use xlink:href="#DejaVuSans-Bold-68" transform="translate(274.511719 0)"/>
     <use xlink:href="#DejaVuSans-Bold-6d" transform="translate(345.703125 0)"/>
     <use xlink:href="#DejaVuSans-Bold-61" transform="translate(449.902344 0)"/>
     <use xlink:href="#DejaVuSans-Bold-72" transform="translate(517.382812 0)"/>
     <use xlink:href="#DejaVuSans-Bold-6b" transform="translate(566.699219 0)"/>
     <use xlink:href="#DejaVuSans-Bold-20" transform="translate(633.203125 0)"/>
     <use xlink:href="#DejaVuSans-Bold-70" transform="translate(668.017578 0)"/>
     <use xlink:href="#DejaVuSans-Bold-61" transform="translate(739.599609 0)"/>
     <use xlink:href="#DejaVuSans-Bold-63" transform="translate(807.080078 0)"/>
     <use xlink:href="#DejaVuSans-Bold-6b" transform="translate(866.357422 0)"/>
     <use xlink:href="#DejaVuSans-Bold-65" transform="translate(930.236328 0)"/>
     <use xlink:href="#DejaVuSans-Bold-74" transform="translate(998.058594 0)"/>
    </g>
    <!-- Golden answer -->
    <g transform="translate(241.270488 149.948625) scale(0.12 -0.12)">
     <defs>
      <path id="DejaVuSans-Bold-47" d="M 4781 347 
Q 4331 128 3847 18 
Q 3363 -91 2847 -91 
Q 1681 -91 1000 561 
Q 319 1213 319 2328 
Q 319 3456 1012 4103 
Q 1706 4750 2913 4750 
Q 3378 4750 3804 4662 
Q 4231 4575 4609 4403 
L 4609 3438 
Q 4219 3659 3833 3768 
Q 3447 3878 3059 3878 
Q 2341 3878 1952 3476 
Q 1563 3075 1563 2328 
Q 1563 1588 1938 1184 
Q 2313 781 3003 781 
Q 3191 781 3352 804 
Q 3513 828 3641 878 
L 3641 1784 
L 2906 1784 
L 2906 2591 
L 4781 2591 
L 4781 347 
z
" transform="scale(0.015625)"/>
      <path id="DejaVuSans-Bold-6f" d="M 2203 2784 
Q 1831 2784 1636 2517 
Q 1441 2250 1441 1747 
Q 1441 1244 1636 976 
Q 1831 709 2203 709 
Q 2569 709 2762 976 
Q 2956 1244 2956 1747 
Q 2956 2250 2762 2517 
Q 2569 2784 2203 2784 
z
M 2203 3584 
Q 3106 3584 3614 3096 
Q 4122 2609 4122 1747 
Q 4122 884 3614 396 
Q 3106 -91 2203 -91 
Q 1297 -91 786 396 
Q 275 884 275 1747 
Q 275 2609 786 3096 
Q 1297 3584 2203 3584 
z
" transform="scale(0.015625)"/>
      <path id="DejaVuSans-Bold-6c" d="M 538 4863 
L 1656 4863 
L 1656 0 
L 538 0 
L 538 4863 
z
" transform="scale(0.015625)"/>
      <path id="DejaVuSans-Bold-64" d="M 2919 2988 
L 2919 4863 
L 4044 4863 
L 4044 0 
L 2919 0 
L 2919 506 
Q 2688 197 2409 53 
Q 2131 -91 1766 -91 
Q 1119 -91 703 423 
Q 288 938 288 1747 
Q 288 2556 703 3070 
Q 1119 3584 1766 3584 
Q 2128 3584 2408 3439 
Q 2688 3294 2919 2988 
z
M 2181 722 
Q 2541 722 2730 984 
Q 2919 1247 2919 1747 
Q 2919 2247 2730 2509 
Q 2541 2772 2181 2772 
Q 1825 2772 1636 2509 
Q 1447 2247 1447 1747 
Q 1447 1247 1636 984 
Q 1825 722 2181 722 
z
" transform="scale(0.015625)"/>
      <path id="DejaVuSans-Bold-73" d="M 3272 3391 
L 3272 2541 
Q 2913 2691 2578 2766 
Q 2244 2841 1947 2841 
Q 1628 2841 1473 2761 
Q 1319 2681 1319 2516 
Q 1319 2381 1436 2309 
Q 1553 2238 1856 2203 
L 2053 2175 
Q 2913 2066 3209 1816 
Q 3506 1566 3506 1031 
Q 3506 472 3093 190 
Q 2681 -91 1863 -91 
Q 1516 -91 1145 -36 
Q 775 19 384 128 
L 384 978 
Q 719 816 1070 734 
Q 1422 653 1784 653 
Q 2113 653 2278 743 
Q 2444 834 2444 1013 
Q 2444 1163 2330 1236 
Q 2216 1309 1875 1350 
L 1678 1375 
Q 931 1469 631 1722 
Q 331 1975 331 2491 
Q 331 3047 712 3315 
Q 1094 3584 1881 3584 
Q 2191 3584 2531 3537 
Q 2872 3491 3272 3391 
z
" transform="scale(0.015625)"/>
      <path id="DejaVuSans-Bold-77" d="M 225 3500 
L 1313 3500 
L 1900 1088 
L 2491 3500 
L 3425 3500 
L 4013 1113 
L 4603 3500 
L 5691 3500 
L 4769 0 
L 3547 0 
L 2956 2406 
L 2369 0 
L 1147 0 
L 225 3500 
z
" transform="scale(0.015625)"/>
     </defs>
     <use xlink:href="#DejaVuSans-Bold-47"/>
     <use xlink:href="#DejaVuSans-Bold-6f" transform="translate(82.080078 0)"/>
     <use xlink:href="#DejaVuSans-Bold-6c" transform="translate(150.78125 0)"/>
     <use xlink:href="#DejaVuSans-Bold-64" transform="translate(185.058594 0)"/>
     <use xlink:href="#DejaVuSans-Bold-65" transform="translate(256.640625 0)"/>
     <use xlink:href="#DejaVuSans-Bold-6e" transform="translate(324.462891 0)"/>
     <use xlink:href="#DejaVuSans-Bold-20" transform="translate(395.654297 0)"/>
     <use xlink:href="#DejaVuSans-Bold-61" transform="translate(430.46875 0)"/>
     <use xlink:href="#DejaVuSans-Bold-6e" transform="translate(497.949219 0)"/>
     <use xlink:href="#DejaVuSans-Bold-73" transform="translate(569.140625 0)"/>
     <use xlink:href="#DejaVuSans-Bold-77" transform="translate(628.662109 0)"/>
     <use xlink:href="#DejaVuSans-Bold-65" transform="translate(721.044922 0)"/>
     <use xlink:href="#DejaVuSans-Bold-72" transform="translate(788.867188 0)"/>
    </g>
   </g>
   <g id="text_2">
    <!-- Karthic -->
    <g transform="translate(408.11365 116.308313) scale(0.12 -0.12)">
     <defs>
      <path id="DejaVuSans-Bold-4b" d="M 588 4666 
L 1791 4666 
L 1791 2963 
L 3525 4666 
L 4922 4666 
L 2675 2456 
L 5153 0 
L 3647 0 
L 1791 1838 
L 1791 0 
L 588 0 
L 588 4666 
z
" transform="scale(0.015625)"/>
      <path id="DejaVuSans-Bold-69" d="M 538 3500 
L 1656 3500 
L 1656 0 
L 538 0 
L 538 3500 
z
M 538 4863 
L 1656 4863 
L 1656 3950 
L 538 3950 
L 538 4863 
z
" transform="scale(0.015625)"/>
     </defs>
     <use xlink:href="#DejaVuSans-Bold-4b"/>
     <use xlink:href="#DejaVuSans-Bold-61" transform="translate(77.490234 0)"/>
     <use xlink:href="#DejaVuSans-Bold-72" transform="translate(144.970703 0)"/>
     <use xlink:href="#DejaVuSans-Bold-74" transform="translate(194.287109 0)"/>
     <use xlink:href="#DejaVuSans-Bold-68" transform="translate(242.089844 0)"/>
     <use xlink:href="#DejaVuSans-Bold-69" transform="translate(313.28125 0)"/>
     <use xlink:href="#DejaVuSans-Bold-63" transform="translate(347.558594 0)"/>
    </g>
    <!-- Domains -->
    <g transform="translate(403.2199 129.745688) scale(0.12 -0.12)">
     <defs>
      <path id="DejaVuSans-Bold-44" d="M 1791 3756 
L 1791 909 
L 2222 909 
Q 2959 909 3348 1275 
Q 3738 1641 3738 2338 
Q 3738 3031 3350 3393 
Q 2963 3756 2222 3756 
L 1791 3756 
z
M 588 4666 
L 1856 4666 
Q 2919 4666 3439 4514 
Q 3959 4363 4331 4000 
Q 4659 3684 4818 3271 
Q 4978 2859 4978 2338 
Q 4978 1809 4818 1395 
Q 4659 981 4331 666 
Q 3956 303 3431 151 
Q 2906 0 1856 0 
L 588 0 
L 588 4666 
z
" transform="scale(0.015625)"/>
     </defs>
     <use xlink:href="#DejaVuSans-Bold-44"/>
     <use xlink:href="#DejaVuSans-Bold-6f" transform="translate(83.007812 0)"/>
     <use xlink:href="#DejaVuSans-Bold-6d" transform="translate(151.708984 0)"/>
     <use xlink:href="#DejaVuSans-Bold-61" transform="translate(255.908203 0)"/>
     <use xlink:href="#DejaVuSans-Bold-69" transform="translate(323.388672 0)"/>
     <use xlink:href="#DejaVuSans-Bold-6e" transform="translate(357.666016 0)"/>
     <use xlink:href="#DejaVuSans-Bold-73" transform="translate(428.857422 0)"/>
    </g>
    <!-- Criteria -->
    <g transform="translate(407.102088 143.183063) scale(0.12 -0.12)">
     <defs>
      <path id="DejaVuSans-Bold-43" d="M 4288 256 
Q 3956 84 3597 -3 
Q 3238 -91 2847 -91 
Q 1681 -91 1000 561 
Q 319 1213 319 2328 
Q 319 3447 1000 4098 
Q 1681 4750 2847 4750 
Q 3238 4750 3597 4662 
Q 3956 4575 4288 4403 
L 4288 3438 
Q 3953 3666 3628 3772 
Q 3303 3878 2944 3878 
Q 2300 3878 1931 3465 
Q 1563 3053 1563 2328 
Q 1563 1606 1931 1193 
Q 2300 781 2944 781 
Q 3303 781 3628 887 
Q 3953 994 4288 1222 
L 4288 256 
z
" transform="scale(0.015625)"/>
     </defs>
     <use xlink:href="#DejaVuSans-Bold-43"/>
     <use xlink:href="#DejaVuSans-Bold-72" transform="translate(73.388672 0)"/>
     <use xlink:href="#DejaVuSans-Bold-69" transform="translate(122.705078 0)"/>
     <use xlink:href="#DejaVuSans-Bold-74" transform="translate(156.982422 0)"/>
     <use xlink:href="#DejaVuSans-Bold-65" transform="translate(204.785156 0)"/>
     <use xlink:href="#DejaVuSans-Bold-72" transform="translate(272.607422 0)"/>
     <use xlink:href="#DejaVuSans-Bold-69" transform="translate(321.923828 0)"/>
     <use xlink:href="#DejaVuSans-Bold-61" transform="translate(356.201172 0)"/>
    </g>
    <!-- Golden targets -->
    <g transform="translate(382.016463 156.620438) scale(0.12 -0.12)">
     <defs>
      <path id="DejaVuSans-Bold-67" d="M 2919 594 
Q 2688 288 2409 144 
Q 2131 0 1766 0 
Q 1125 0 706 504 
Q 288 1009 288 1791 
Q 288 2575 706 3076 
Q 1125 3578 1766 3578 
Q 2131 3578 2409 3434 
Q 2688 3291 2919 2981 
L 2919 3500 
L 4044 3500 
L 4044 353 
Q 4044 -491 3511 -936 
Q 2978 -1381 1966 -1381 
Q 1638 -1381 1331 -1331 
Q 1025 -1281 716 -1178 
L 716 -306 
Q 1009 -475 1290 -558 
Q 1572 -641 1856 -641 
Q 2406 -641 2662 -400 
Q 2919 -159 2919 353 
L 2919 594 
z
M 2181 2772 
Q 1834 2772 1640 2515 
Q 1447 2259 1447 1791 
Q 1447 1309 1634 1061 
Q 1822 813 2181 813 
Q 2531 813 2725 1069 
Q 2919 1325 2919 1791 
Q 2919 2259 2725 2515 
Q 2531 2772 2181 2772 
z
" transform="scale(0.015625)"/>
     </defs>
     <use xlink:href="#DejaVuSans-Bold-47"/>
     <use xlink:href="#DejaVuSans-Bold-6f" transform="translate(82.080078 0)"/>
     <use xlink:href="#DejaVuSans-Bold-6c" transform="translate(150.78125 0)"/>
     <use xlink:href="#DejaVuSans-Bold-64" transform="translate(185.058594 0)"/>
     <use xlink:href="#DejaVuSans-Bold-65" transform="translate(256.640625 0)"/>
     <use xlink:href="#DejaVuSans-Bold-6e" transform="translate(324.462891 0)"/>
     <use xlink:href="#DejaVuSans-Bold-20" transform="translate(395.654297 0)"/>
     <use xlink:href="#DejaVuSans-Bold-74" transform="translate(430.46875 0)"/>
     <use xlink:href="#DejaVuSans-Bold-61" transform="translate(478.271484 0)"/>
     <use xlink:href="#DejaVuSans-Bold-72" transform="translate(545.751953 0)"/>
     <use xlink:href="#DejaVuSans-Bold-67" transform="translate(595.068359 0)"/>
     <use xlink:href="#DejaVuSans-Bold-65" transform="translate(666.650391 0)"/>
     <use xlink:href="#DejaVuSans-Bold-74" transform="translate(734.472656 0)"/>
     <use xlink:href="#DejaVuSans-Bold-73" transform="translate(782.275391 0)"/>
    </g>
   </g>
   <g id="text_3">
    <!-- Dasha -->
    <g transform="translate(552.563688 109.495875) scale(0.12 -0.12)">
     <use xlink:href="#DejaVuSans-Bold-44"/>
     <use xlink:href="#DejaVuSans-Bold-61" transform="translate(83.007812 0)"/>
     <use xlink:href="#DejaVuSans-Bold-73" transform="translate(150.488281 0)"/>
     <use xlink:href="#DejaVuSans-Bold-68" transform="translate(210.009766 0)"/>
     <use xlink:href="#DejaVuSans-Bold-61" transform="translate(281.201172 0)"/>
    </g>
    <!-- 240 responses -->
    <g transform="translate(524.373063 122.93325) scale(0.12 -0.12)">
     <defs>
      <path id="DejaVuSans-Bold-32" d="M 1844 884 
L 3897 884 
L 3897 0 
L 506 0 
L 506 884 
L 2209 2388 
Q 2438 2594 2547 2791 
Q 2656 2988 2656 3200 
Q 2656 3528 2436 3728 
Q 2216 3928 1850 3928 
Q 1569 3928 1234 3808 
Q 900 3688 519 3450 
L 519 4475 
Q 925 4609 1322 4679 
Q 1719 4750 2100 4750 
Q 2938 4750 3402 4381 
Q 3866 4013 3866 3353 
Q 3866 2972 3669 2642 
Q 3472 2313 2841 1759 
L 1844 884 
z
" transform="scale(0.015625)"/>
      <path id="DejaVuSans-Bold-34" d="M 2356 3675 
L 1038 1722 
L 2356 1722 
L 2356 3675 
z
M 2156 4666 
L 3494 4666 
L 3494 1722 
L 4159 1722 
L 4159 850 
L 3494 850 
L 3494 0 
L 2356 0 
L 2356 850 
L 288 850 
L 288 1881 
L 2156 4666 
z
" transform="scale(0.015625)"/>
      <path id="DejaVuSans-Bold-30" d="M 2944 2338 
Q 2944 3213 2780 3570 
Q 2616 3928 2228 3928 
Q 1841 3928 1675 3570 
Q 1509 3213 1509 2338 
Q 1509 1453 1675 1090 
Q 1841 728 2228 728 
Q 2613 728 2778 1090 
Q 2944 1453 2944 2338 
z
M 4147 2328 
Q 4147 1169 3647 539 
Q 3147 -91 2228 -91 
Q 1306 -91 806 539 
Q 306 1169 306 2328 
Q 306 3491 806 4120 
Q 1306 4750 2228 4750 
Q 3147 4750 3647 4120 
Q 4147 3491 4147 2328 
z
" transform="scale(0.015625)"/>
     </defs>
     <use xlink:href="#DejaVuSans-Bold-32"/>
     <use xlink:href="#DejaVuSans-Bold-34" transform="translate(69.580078 0)"/>
     <use xlink:href="#DejaVuSans-Bold-30" transform="translate(139.160156 0)"/>
     <use xlink:href="#DejaVuSans-Bold-20" transform="translate(208.740234 0)"/>
     <use xlink:href="#DejaVuSans-Bold-72" transform="translate(243.554688 0)"/>
     <use xlink:href="#DejaVuSans-Bold-65" transform="translate(292.871094 0)"/>
     <use xlink:href="#DejaVuSans-Bold-73" transform="translate(360.693359 0)"/>
     <use xlink:href="#DejaVuSans-Bold-70" transform="translate(420.214844 0)"/>
     <use xlink:href="#DejaVuSans-Bold-6f" transform="translate(491.796875 0)"/>
     <use xlink:href="#DejaVuSans-Bold-6e" transform="translate(560.498047 0)"/>
     <use xlink:href="#DejaVuSans-Bold-73" transform="translate(631.689453 0)"/>
     <use xlink:href="#DejaVuSans-Bold-65" transform="translate(691.210938 0)"/>
     <use xlink:href="#DejaVuSans-Bold-73" transform="translate(759.033203 0)"/>
    </g>
    <!-- Embeddings -->
    <g transform="translate(531.9865 136.370625) scale(0.12 -0.12)">
     <defs>
      <path id="DejaVuSans-Bold-45" d="M 588 4666 
L 3834 4666 
L 3834 3756 
L 1791 3756 
L 1791 2888 
L 3713 2888 
L 3713 1978 
L 1791 1978 
L 1791 909 
L 3903 909 
L 3903 0 
L 588 0 
L 588 4666 
z
" transform="scale(0.015625)"/>
      <path id="DejaVuSans-Bold-62" d="M 2400 722 
Q 2759 722 2948 984 
Q 3138 1247 3138 1747 
Q 3138 2247 2948 2509 
Q 2759 2772 2400 2772 
Q 2041 2772 1848 2508 
Q 1656 2244 1656 1747 
Q 1656 1250 1848 986 
Q 2041 722 2400 722 
z
M 1656 2988 
Q 1888 3294 2169 3439 
Q 2450 3584 2816 3584 
Q 3463 3584 3878 3070 
Q 4294 2556 4294 1747 
Q 4294 938 3878 423 
Q 3463 -91 2816 -91 
Q 2450 -91 2169 54 
Q 1888 200 1656 506 
L 1656 0 
L 538 0 
L 538 4863 
L 1656 4863 
L 1656 2988 
z
" transform="scale(0.015625)"/>
     </defs>
     <use xlink:href="#DejaVuSans-Bold-45"/>
     <use xlink:href="#DejaVuSans-Bold-6d" transform="translate(68.310547 0)"/>
     <use xlink:href="#DejaVuSans-Bold-62" transform="translate(172.509766 0)"/>
     <use xlink:href="#DejaVuSans-Bold-65" transform="translate(244.091797 0)"/>
     <use xlink:href="#DejaVuSans-Bold-64" transform="translate(311.914062 0)"/>
     <use xlink:href="#DejaVuSans-Bold-64" transform="translate(383.496094 0)"/>
     <use xlink:href="#DejaVuSans-Bold-69" transform="translate(455.078125 0)"/>
     <use xlink:href="#DejaVuSans-Bold-6e" transform="translate(489.355469 0)"/>
     <use xlink:href="#DejaVuSans-Bold-67" transform="translate(560.546875 0)"/>
     <use xlink:href="#DejaVuSans-Bold-73" transform="translate(632.128906 0)"/>
    </g>
    <!-- Clustering -->
    <g transform="translate(538.663375 149.90175) scale(0.12 -0.12)">
     <defs>
      <path id="DejaVuSans-Bold-75" d="M 500 1363 
L 500 3500 
L 1625 3500 
L 1625 3150 
Q 1625 2866 1622 2436 
Q 1619 2006 1619 1863 
Q 1619 1441 1641 1255 
Q 1663 1069 1716 984 
Q 1784 875 1895 815 
Q 2006 756 2150 756 
Q 2500 756 2700 1025 
Q 2900 1294 2900 1772 
L 2900 3500 
L 4019 3500 
L 4019 0 
L 2900 0 
L 2900 506 
Q 2647 200 2364 54 
Q 2081 -91 1741 -91 
Q 1134 -91 817 281 
Q 500 653 500 1363 
z
" transform="scale(0.015625)"/>
     </defs>
     <use xlink:href="#DejaVuSans-Bold-43"/>
     <use xlink:href="#DejaVuSans-Bold-6c" transform="translate(73.388672 0)"/>
     <use xlink:href="#DejaVuSans-Bold-75" transform="translate(107.666016 0)"/>
     <use xlink:href="#DejaVuSans-Bold-73" transform="translate(178.857422 0)"/>
     <use xlink:href="#DejaVuSans-Bold-74" transform="translate(238.378906 0)"/>
     <use xlink:href="#DejaVuSans-Bold-65" transform="translate(286.181641 0)"/>
     <use xlink:href="#DejaVuSans-Bold-72" transform="translate(354.003906 0)"/>
     <use xlink:href="#DejaVuSans-Bold-69" transform="translate(403.320312 0)"/>
     <use xlink:href="#DejaVuSans-Bold-6e" transform="translate(437.597656 0)"/>
     <use xlink:href="#DejaVuSans-Bold-67" transform="translate(508.789062 0)"/>
    </g>
    <!-- Ensemble judging -->
    <g transform="translate(513.171812 163.432875) scale(0.12 -0.12)">
     <defs>
      <path id="DejaVuSans-Bold-6a" d="M 538 3500 
L 1656 3500 
L 1656 63 
Q 1656 -641 1318 -1011 
Q 981 -1381 341 -1381 
L -213 -1381 
L -213 -647 
L -19 -647 
Q 300 -647 419 -503 
Q 538 -359 538 63 
L 538 3500 
z
M 538 4863 
L 1656 4863 
L 1656 3950 
L 538 3950 
L 538 4863 
z
" transform="scale(0.015625)"/>
     </defs>
     <use xlink:href="#DejaVuSans-Bold-45"/>
     <use xlink:href="#DejaVuSans-Bold-6e" transform="translate(68.310547 0)"/>
     <use xlink:href="#DejaVuSans-Bold-73" transform="translate(139.501953 0)"/>
     <use xlink:href="#DejaVuSans-Bold-65" transform="translate(199.023438 0)"/>
     <use xlink:href="#DejaVuSans-Bold-6d" transform="translate(266.845703 0)"/>
     <use xlink:href="#DejaVuSans-Bold-62" transform="translate(371.044922 0)"/>
     <use xlink:href="#DejaVuSans-Bold-6c" transform="translate(442.626953 0)"/>
     <use xlink:href="#DejaVuSans-Bold-65" transform="translate(476.904297 0)"/>
     <use xlink:href="#DejaVuSans-Bold-20" transform="translate(544.726562 0)"/>
     <use xlink:href="#DejaVuSans-Bold-6a" transform="translate(579.541016 0)"/>
     <use xlink:href="#DejaVuSans-Bold-75" transform="translate(613.818359 0)"/>
     <use xlink:href="#DejaVuSans-Bold-64" transform="translate(685.009766 0)"/>
     <use xlink:href="#DejaVuSans-Bold-67" transform="translate(756.591797 0)"/>
     <use xlink:href="#DejaVuSans-Bold-69" transform="translate(828.173828 0)"/>
     <use xlink:href="#DejaVuSans-Bold-6e" transform="translate(862.451172 0)"/>
     <use xlink:href="#DejaVuSans-Bold-67" transform="translate(933.642578 0)"/>
    </g>
   </g>
   <g id="text_4">
    <!-- Outputs -->
    <g transform="translate(676.35865 116.261438) scale(0.12 -0.12)">
     <defs>
      <path id="DejaVuSans-Bold-4f" d="M 2719 3878 
Q 2169 3878 1866 3472 
Q 1563 3066 1563 2328 
Q 1563 1594 1866 1187 
Q 2169 781 2719 781 
Q 3272 781 3575 1187 
Q 3878 1594 3878 2328 
Q 3878 3066 3575 3472 
Q 3272 3878 2719 3878 
z
M 2719 4750 
Q 3844 4750 4481 4106 
Q 5119 3463 5119 2328 
Q 5119 1197 4481 553 
Q 3844 -91 2719 -91 
Q 1597 -91 958 553 
Q 319 1197 319 2328 
Q 319 3463 958 4106 
Q 1597 4750 2719 4750 
z
" transform="scale(0.015625)"/>
     </defs>
     <use xlink:href="#DejaVuSans-Bold-4f"/>
     <use xlink:href="#DejaVuSans-Bold-75" transform="translate(85.009766 0)"/>
     <use xlink:href="#DejaVuSans-Bold-74" transform="translate(156.201172 0)"/>
     <use xlink:href="#DejaVuSans-Bold-70" transform="translate(204.003906 0)"/>
     <use xlink:href="#DejaVuSans-Bold-75" transform="translate(275.585938 0)"/>
     <use xlink:href="#DejaVuSans-Bold-74" transform="translate(346.777344 0)"/>
     <use xlink:href="#DejaVuSans-Bold-73" transform="translate(394.580078 0)"/>
    </g>
    <!-- Quality metrics -->
    <g transform="translate(651.8674 129.698813) scale(0.12 -0.12)">
     <defs>
      <path id="DejaVuSans-Bold-51" d="M 2847 -84 
L 2753 -84 
Q 1600 -84 959 553 
Q 319 1191 319 2328 
Q 319 3463 958 4106 
Q 1597 4750 2719 4750 
Q 3853 4750 4486 4112 
Q 5119 3475 5119 2328 
Q 5119 1541 4783 972 
Q 4447 403 3816 116 
L 4756 -934 
L 3609 -934 
L 2847 -84 
z
M 2719 3878 
Q 2169 3878 1866 3472 
Q 1563 3066 1563 2328 
Q 1563 1578 1859 1179 
Q 2156 781 2719 781 
Q 3272 781 3575 1187 
Q 3878 1594 3878 2328 
Q 3878 3066 3575 3472 
Q 3272 3878 2719 3878 
z
" transform="scale(0.015625)"/>
      <path id="DejaVuSans-Bold-79" d="M 78 3500 
L 1197 3500 
L 2138 1125 
L 2938 3500 
L 4056 3500 
L 2584 -331 
Q 2363 -916 2067 -1148 
Q 1772 -1381 1288 -1381 
L 641 -1381 
L 641 -647 
L 991 -647 
Q 1275 -647 1404 -556 
Q 1534 -466 1606 -231 
L 1638 -134 
L 78 3500 
z
" transform="scale(0.015625)"/>
     </defs>
     <use xlink:href="#DejaVuSans-Bold-51"/>
     <use xlink:href="#DejaVuSans-Bold-75" transform="translate(85.009766 0)"/>
     <use xlink:href="#DejaVuSans-Bold-61" transform="translate(156.201172 0)"/>
     <use xlink:href="#DejaVuSans-Bold-6c" transform="translate(223.681641 0)"/>
     <use xlink:href="#DejaVuSans-Bold-69" transform="translate(257.958984 0)"/>
     <use xlink:href="#DejaVuSans-Bold-74" transform="translate(292.236328 0)"/>
     <use xlink:href="#DejaVuSans-Bold-79" transform="translate(340.039062 0)"/>
     <use xlink:href="#DejaVuSans-Bold-20" transform="translate(405.224609 0)"/>
     <use xlink:href="#DejaVuSans-Bold-6d" transform="translate(440.039062 0)"/>
     <use xlink:href="#DejaVuSans-Bold-65" transform="translate(544.238281 0)"/>
     <use xlink:href="#DejaVuSans-Bold-74" transform="translate(612.060547 0)"/>
     <use xlink:href="#DejaVuSans-Bold-72" transform="translate(659.863281 0)"/>
     <use xlink:href="#DejaVuSans-Bold-69" transform="translate(709.179688 0)"/>
     <use xlink:href="#DejaVuSans-Bold-63" transform="translate(743.457031 0)"/>
     <use xlink:href="#DejaVuSans-Bold-73" transform="translate(802.734375 0)"/>
    </g>
    <!-- Robustness tests -->
    <g transform="translate(645.337712 143.229938) scale(0.12 -0.12)">
     <defs>
      <path id="DejaVuSans-Bold-52" d="M 2297 2597 
Q 2675 2597 2839 2737 
Q 3003 2878 3003 3200 
Q 3003 3519 2839 3656 
Q 2675 3794 2297 3794 
L 1791 3794 
L 1791 2597 
L 2297 2597 
z
M 1791 1766 
L 1791 0 
L 588 0 
L 588 4666 
L 2425 4666 
Q 3347 4666 3776 4356 
Q 4206 4047 4206 3378 
Q 4206 2916 3982 2619 
Q 3759 2322 3309 2181 
Q 3556 2125 3751 1926 
Q 3947 1728 4147 1325 
L 4800 0 
L 3519 0 
L 2950 1159 
Q 2778 1509 2601 1637 
Q 2425 1766 2131 1766 
L 1791 1766 
z
" transform="scale(0.015625)"/>
     </defs>
     <use xlink:href="#DejaVuSans-Bold-52"/>
     <use xlink:href="#DejaVuSans-Bold-6f" transform="translate(77.001953 0)"/>
     <use xlink:href="#DejaVuSans-Bold-62" transform="translate(145.703125 0)"/>
     <use xlink:href="#DejaVuSans-Bold-75" transform="translate(217.285156 0)"/>
     <use xlink:href="#DejaVuSans-Bold-73" transform="translate(288.476562 0)"/>
     <use xlink:href="#DejaVuSans-Bold-74" transform="translate(347.998047 0)"/>
     <use xlink:href="#DejaVuSans-Bold-6e" transform="translate(395.800781 0)"/>
     <use xlink:href="#DejaVuSans-Bold-65" transform="translate(466.992188 0)"/>
     <use xlink:href="#DejaVuSans-Bold-73" transform="translate(534.814453 0)"/>
     <use xlink:href="#DejaVuSans-Bold-73" transform="translate(594.335938 0)"/>
     <use xlink:href="#DejaVuSans-Bold-20" transform="translate(653.857422 0)"/>
     <use xlink:href="#DejaVuSans-Bold-74" transform="translate(688.671875 0)"/>
     <use xlink:href="#DejaVuSans-Bold-65" transform="translate(736.474609 0)"/>
     <use xlink:href="#DejaVuSans-Bold-73" transform="translate(804.296875 0)"/>
     <use xlink:href="#DejaVuSans-Bold-74" transform="translate(863.818359 0)"/>
     <use xlink:href="#DejaVuSans-Bold-73" transform="translate(911.621094 0)"/>
    </g>
    <!-- Benchmark insights -->
    <g transform="translate(636.561775 156.667313) scale(0.12 -0.12)">
     <use xlink:href="#DejaVuSans-Bold-42"/>
     <use xlink:href="#DejaVuSans-Bold-65" transform="translate(76.220703 0)"/>
     <use xlink:href="#DejaVuSans-Bold-6e" transform="translate(144.042969 0)"/>
     <use xlink:href="#DejaVuSans-Bold-63" transform="translate(215.234375 0)"/>
     <use xlink:href="#DejaVuSans-Bold-68" transform="translate(274.511719 0)"/>
     <use xlink:href="#DejaVuSans-Bold-6d" transform="translate(345.703125 0)"/>
     <use xlink:href="#DejaVuSans-Bold-61" transform="translate(449.902344 0)"/>
     <use xlink:href="#DejaVuSans-Bold-72" transform="translate(517.382812 0)"/>
     <use xlink:href="#DejaVuSans-Bold-6b" transform="translate(566.699219 0)"/>
     <use xlink:href="#DejaVuSans-Bold-20" transform="translate(633.203125 0)"/>
     <use xlink:href="#DejaVuSans-Bold-69" transform="translate(668.017578 0)"/>
     <use xlink:href="#DejaVuSans-Bold-6e" transform="translate(702.294922 0)"/>
     <use xlink:href="#DejaVuSans-Bold-73" transform="translate(773.486328 0)"/>
     <use xlink:href="#DejaVuSans-Bold-69" transform="translate(833.007812 0)"/>
     <use xlink:href="#DejaVuSans-Bold-67" transform="translate(867.285156 0)"/>
     <use xlink:href="#DejaVuSans-Bold-68" transform="translate(938.867188 0)"/>
     <use xlink:href="#DejaVuSans-Bold-74" transform="translate(1010.058594 0)"/>
     <use xlink:href="#DejaVuSans-Bold-73" transform="translate(1057.861328 0)"/>
    </g>
   </g>
   <g id="patch_6">
    <path d="M 347.775099 133.2 
Q 362.040498 133.2 374.069828 133.2 
" style="fill: none; stroke: #000000; stroke-width: 2; stroke-linecap: round"/>
    <path d="M 370.069828 131.2 
L 374.069828 133.2 
L 370.069828 135.2 
" style="fill: none; stroke: #000000; stroke-width: 2; stroke-linecap: round"/>
   </g>
   <g id="patch_7">
    <path d="M 488.736699 133.2 
Q 503.002098 133.2 515.031428 133.2 
" style="fill: none; stroke: #000000; stroke-width: 2; stroke-linecap: round"/>
    <path d="M 511.031428 131.2 
L 515.031428 133.2 
L 511.031428 135.2 
" style="fill: none; stroke: #000000; stroke-width: 2; stroke-linecap: round"/>
   </g>
   <g id="patch_8">
    <path d="M 629.698299 133.2 
Q 643.963698 133.2 655.993028 133.2 
" style="fill: none; stroke: #000000; stroke-width: 2; stroke-linecap: round"/>
    <path d="M 651.993028 131.2 
L 655.993028 133.2 
L 651.993028 135.2 
" style="fill: none; stroke: #000000; stroke-width: 2; stroke-linecap: round"/>
   </g>
   <g id="text_5">
    <!-- Figure 1. FKD pipeline overview: Frank defines the benchmark, Karthic formalizes the rubric, and Dasha measures reasoning diversity through clustering and rubric-aligned ensemble evaluation. -->
    <g transform="translate(7.2 247.040312) scale(0.1 -0.1)">
     <defs>
      <path id="DejaVuSans-46" d="M 628 4666 
L 3309 4666 
L 3309 4134 
L 1259 4134 
L 1259 2759 
L 3109 2759 
L 3109 2228 
L 1259 2228 
L 1259 0 
L 628 0 
L 628 4666 
z
" transform="scale(0.015625)"/>
      <path id="DejaVuSans-69" d="M 603 3500 
L 1178 3500 
L 1178 0 
L 603 0 
L 603 3500 
z
M 603 4863 
L 1178 4863 
L 1178 4134 
L 603 4134 
L 603 4863 
z
" transform="scale(0.015625)"/>
      <path id="DejaVuSans-67" d="M 2906 1791 
Q 2906 2416 2648 2759 
Q 2391 3103 1925 3103 
Q 1463 3103 1205 2759 
Q 947 2416 947 1791 
Q 947 1169 1205 825 
Q 1463 481 1925 481 
Q 2391 481 2648 825 
Q 2906 1169 2906 1791 
z
M 3481 434 
Q 3481 -459 3084 -895 
Q 2688 -1331 1869 -1331 
Q 1566 -1331 1297 -1286 
Q 1028 -1241 775 -1147 
L 775 -588 
Q 1028 -725 1275 -790 
Q 1522 -856 1778 -856 
Q 2344 -856 2625 -561 
Q 2906 -266 2906 331 
L 2906 616 
Q 2728 306 2450 153 
Q 2172 0 1784 0 
Q 1141 0 747 490 
Q 353 981 353 1791 
Q 353 2603 747 3093 
Q 1141 3584 1784 3584 
Q 2172 3584 2450 3431 
Q 2728 3278 2906 2969 
L 2906 3500 
L 3481 3500 
L 3481 434 
z
" transform="scale(0.015625)"/>
      <path id="DejaVuSans-75" d="M 544 1381 
L 544 3500 
L 1119 3500 
L 1119 1403 
Q 1119 906 1312 657 
Q 1506 409 1894 409 
Q 2359 409 2629 706 
Q 2900 1003 2900 1516 
L 2900 3500 
L 3475 3500 
L 3475 0 
L 2900 0 
L 2900 538 
Q 2691 219 2414 64 
Q 2138 -91 1772 -91 
Q 1169 -91 856 284 
Q 544 659 544 1381 
z
M 1991 3584 
L 1991 3584 
z
" transform="scale(0.015625)"/>
      <path id="DejaVuSans-72" d="M 2631 2963 
Q 2534 3019 2420 3045 
Q 2306 3072 2169 3072 
Q 1681 3072 1420 2755 
Q 1159 2438 1159 1844 
L 1159 0 
L 581 0 
L 581 3500 
L 1159 3500 
L 1159 2956 
Q 1341 3275 1631 3429 
Q 1922 3584 2338 3584 
Q 2397 3584 2469 3576 
Q 2541 3569 2628 3553 
L 2631 2963 
z
" transform="scale(0.015625)"/>
      <path id="DejaVuSans-65" d="M 3597 1894 
L 3597 1613 
L 953 1613 
Q 991 1019 1311 708 
Q 1631 397 2203 397 
Q 2534 397 2845 478 
Q 3156 559 3463 722 
L 3463 178 
Q 3153 47 2828 -22 
Q 2503 -91 2169 -91 
Q 1331 -91 842 396 
Q 353 884 353 1716 
Q 353 2575 817 3079 
Q 1281 3584 2069 3584 
Q 2775 3584 3186 3129 
Q 3597 2675 3597 1894 
z
M 3022 2063 
Q 3016 2534 2758 2815 
Q 2500 3097 2075 3097 
Q 1594 3097 1305 2825 
Q 1016 2553 972 2059 
L 3022 2063 
z
" transform="scale(0.015625)"/>
      <path id="DejaVuSans-20" transform="scale(0.015625)"/>
      <path id="DejaVuSans-31" d="M 794 531 
L 1825 531 
L 1825 4091 
L 703 3866 
L 703 4441 
L 1819 4666 
L 2450 4666 
L 2450 531 
L 3481 531 
L 3481 0 
L 794 0 
L 794 531 
z
" transform="scale(0.015625)"/>
      <path id="DejaVuSans-2e" d="M 684 794 
L 1344 794 
L 1344 0 
L 684 0 
L 684 794 
z
" transform="scale(0.015625)"/>
      <path id="DejaVuSans-4b" d="M 628 4666 
L 1259 4666 
L 1259 2694 
L 3353 4666 
L 4166 4666 
L 1850 2491 
L 4331 0 
L 3500 0 
L 1259 2247 
L 1259 0 
L 628 0 
L 628 4666 
z
" transform="scale(0.015625)"/>
      <path id="DejaVuSans-44" d="M 1259 4147 
L 1259 519 
L 2022 519 
Q 2988 519 3436 956 
Q 3884 1394 3884 2338 
Q 3884 3275 3436 3711 
Q 2988 4147 2022 4147 
L 1259 4147 
z
M 628 4666 
L 1925 4666 
Q 3281 4666 3915 4102 
Q 4550 3538 4550 2338 
Q 4550 1131 3912 565 
Q 3275 0 1925 0 
L 628 0 
L 628 4666 
z
" transform="scale(0.015625)"/>
      <path id="DejaVuSans-70" d="M 1159 525 
L 1159 -1331 
L 581 -1331 
L 581 3500 
L 1159 3500 
L 1159 2969 
Q 1341 3281 1617 3432 
Q 1894 3584 2278 3584 
Q 2916 3584 3314 3078 
Q 3713 2572 3713 1747 
Q 3713 922 3314 415 
Q 2916 -91 2278 -91 
Q 1894 -91 1617 61 
Q 1341 213 1159 525 
z
M 3116 1747 
Q 3116 2381 2855 2742 
Q 2594 3103 2138 3103 
Q 1681 3103 1420 2742 
Q 1159 2381 1159 1747 
Q 1159 1113 1420 752 
Q 1681 391 2138 391 
Q 2594 391 2855 752 
Q 3116 1113 3116 1747 
z
" transform="scale(0.015625)"/>
      <path id="DejaVuSans-6c" d="M 603 4863 
L 1178 4863 
L 1178 0 
L 603 0 
L 603 4863 
z
" transform="scale(0.015625)"/>
      <path id="DejaVuSans-6e" d="M 3513 2113 
L 3513 0 
L 2938 0 
L 2938 2094 
Q 2938 2591 2744 2837 
Q 2550 3084 2163 3084 
Q 1697 3084 1428 2787 
Q 1159 2491 1159 1978 
L 1159 0 
L 581 0 
L 581 3500 
L 1159 3500 
L 1159 2956 
Q 1366 3272 1645 3428 
Q 1925 3584 2291 3584 
Q 2894 3584 3203 3211 
Q 3513 2838 3513 2113 
z
" transform="scale(0.015625)"/>
      <path id="DejaVuSans-6f" d="M 1959 3097 
Q 1497 3097 1228 2736 
Q 959 2375 959 1747 
Q 959 1119 1226 758 
Q 1494 397 1959 397 
Q 2419 397 2687 759 
Q 2956 1122 2956 1747 
Q 2956 2369 2687 2733 
Q 2419 3097 1959 3097 
z
M 1959 3584 
Q 2709 3584 3137 3096 
Q 3566 2609 3566 1747 
Q 3566 888 3137 398 
Q 2709 -91 1959 -91 
Q 1206 -91 779 398 
Q 353 888 353 1747 
Q 353 2609 779 3096 
Q 1206 3584 1959 3584 
z
" transform="scale(0.015625)"/>
      <path id="DejaVuSans-76" d="M 191 3500 
L 800 3500 
L 1894 563 
L 2988 3500 
L 3597 3500 
L 2284 0 
L 1503 0 
L 191 3500 
z
" transform="scale(0.015625)"/>
      <path id="DejaVuSans-77" d="M 269 3500 
L 844 3500 
L 1563 769 
L 2278 3500 
L 2956 3500 
L 3675 769 
L 4391 3500 
L 4966 3500 
L 4050 0 
L 3372 0 
L 2619 2869 
L 1863 0 
L 1184 0 
L 269 3500 
z
" transform="scale(0.015625)"/>
      <path id="DejaVuSans-3a" d="M 750 794 
L 1409 794 
L 1409 0 
L 750 0 
L 750 794 
z
M 750 3309 
L 1409 3309 
L 1409 2516 
L 750 2516 
L 750 3309 
z
" transform="scale(0.015625)"/>
      <path id="DejaVuSans-61" d="M 2194 1759 
Q 1497 1759 1228 1600 
Q 959 1441 959 1056 
Q 959 750 1161 570 
Q 1363 391 1709 391 
Q 2188 391 2477 730 
Q 2766 1069 2766 1631 
L 2766 1759 
L 2194 1759 
z
M 3341 1997 
L 3341 0 
L 2766 0 
L 2766 531 
Q 2569 213 2275 61 
Q 1981 -91 1556 -91 
Q 1019 -91 701 211 
Q 384 513 384 1019 
Q 384 1609 779 1909 
Q 1175 2209 1959 2209 
L 2766 2209 
L 2766 2266 
Q 2766 2663 2505 2880 
Q 2244 3097 1772 3097 
Q 1472 3097 1187 3025 
Q 903 2953 641 2809 
L 641 3341 
Q 956 3463 1253 3523 
Q 1550 3584 1831 3584 
Q 2591 3584 2966 3190 
Q 3341 2797 3341 1997 
z
" transform="scale(0.015625)"/>
      <path id="DejaVuSans-6b" d="M 581 4863 
L 1159 4863 
L 1159 1991 
L 2875 3500 
L 3609 3500 
L 1753 1863 
L 3688 0 
L 2938 0 
L 1159 1709 
L 1159 0 
L 581 0 
L 581 4863 
z
" transform="scale(0.015625)"/>
      <path id="DejaVuSans-64" d="M 2906 2969 
L 2906 4863 
L 3481 4863 
L 3481 0 
L 2906 0 
L 2906 525 
Q 2725 213 2448 61 
Q 2172 -91 1784 -91 
Q 1150 -91 751 415 
Q 353 922 353 1747 
Q 353 2572 751 3078 
Q 1150 3584 1784 3584 
Q 2172 3584 2448 3432 
Q 2725 3281 2906 2969 
z
M 947 1747 
Q 947 1113 1208 752 
Q 1469 391 1925 391 
Q 2381 391 2643 752 
Q 2906 1113 2906 1747 
Q 2906 2381 2643 2742 
Q 2381 3103 1925 3103 
Q 1469 3103 1208 2742 
Q 947 2381 947 1747 
z
" transform="scale(0.015625)"/>
      <path id="DejaVuSans-66" d="M 2375 4863 
L 2375 4384 
L 1825 4384 
Q 1516 4384 1395 4259 
Q 1275 4134 1275 3809 
L 1275 3500 
L 2222 3500 
L 2222 3053 
L 1275 3053 
L 1275 0 
L 697 0 
L 697 3053 
L 147 3053 
L 147 3500 
L 697 3500 
L 697 3744 
Q 697 4328 969 4595 
Q 1241 4863 1831 4863 
L 2375 4863 
z
" transform="scale(0.015625)"/>
      <path id="DejaVuSans-73" d="M 2834 3397 
L 2834 2853 
Q 2591 2978 2328 3040 
Q 2066 3103 1784 3103 
Q 1356 3103 1142 2972 
Q 928 2841 928 2578 
Q 928 2378 1081 2264 
Q 1234 2150 1697 2047 
L 1894 2003 
Q 2506 1872 2764 1633 
Q 3022 1394 3022 966 
Q 3022 478 2636 193 
Q 2250 -91 1575 -91 
Q 1294 -91 989 -36 
Q 684 19 347 128 
L 347 722 
Q 666 556 975 473 
Q 1284 391 1588 391 
Q 1994 391 2212 530 
Q 2431 669 2431 922 
Q 2431 1156 2273 1281 
Q 2116 1406 1581 1522 
L 1381 1569 
Q 847 1681 609 1914 
Q 372 2147 372 2553 
Q 372 3047 722 3315 
Q 1072 3584 1716 3584 
Q 2034 3584 2315 3537 
Q 2597 3491 2834 3397 
z
" transform="scale(0.015625)"/>
      <path id="DejaVuSans-74" d="M 1172 4494 
L 1172 3500 
L 2356 3500 
L 2356 3053 
L 1172 3053 
L 1172 1153 
Q 1172 725 1289 603 
Q 1406 481 1766 481 
L 2356 481 
L 2356 0 
L 1766 0 
Q 1100 0 847 248 
Q 594 497 594 1153 
L 594 3053 
L 172 3053 
L 172 3500 
L 594 3500 
L 594 4494 
L 1172 4494 
z
" transform="scale(0.015625)"/>
      <path id="DejaVuSans-68" d="M 3513 2113 
L 3513 0 
L 2938 0 
L 2938 2094 
Q 2938 2591 2744 2837 
Q 2550 3084 2163 3084 
Q 1697 3084 1428 2787 
Q 1159 2491 1159 1978 
L 1159 0 
L 581 0 
L 581 4863 
L 1159 4863 
L 1159 2956 
Q 1366 3272 1645 3428 
Q 1925 3584 2291 3584 
Q 2894 3584 3203 3211 
Q 3513 2838 3513 2113 
z
" transform="scale(0.015625)"/>
      <path id="DejaVuSans-62" d="M 3116 1747 
Q 3116 2381 2855 2742 
Q 2594 3103 2138 3103 
Q 1681 3103 1420 2742 
Q 1159 2381 1159 1747 
Q 1159 1113 1420 752 
Q 1681 391 2138 391 
Q 2594 391 2855 752 
Q 3116 1113 3116 1747 
z
M 1159 2969 
Q 1341 3281 1617 3432 
Q 1894 3584 2278 3584 
Q 2916 3584 3314 3078 
Q 3713 2572 3713 1747 
Q 3713 922 3314 415 
Q 2916 -91 2278 -91 
Q 1894 -91 1617 61 
Q 1341 213 1159 525 
L 1159 0 
L 581 0 
L 581 4863 
L 1159 4863 
L 1159 2969 
z
" transform="scale(0.015625)"/>
      <path id="DejaVuSans-63" d="M 3122 3366 
L 3122 2828 
Q 2878 2963 2633 3030 
Q 2388 3097 2138 3097 
Q 1578 3097 1268 2742 
Q 959 2388 959 1747 
Q 959 1106 1268 751 
Q 1578 397 2138 397 
Q 2388 397 2633 464 
Q 2878 531 3122 666 
L 3122 134 
Q 2881 22 2623 -34 
Q 2366 -91 2075 -91 
Q 1284 -91 818 406 
Q 353 903 353 1747 
Q 353 2603 823 3093 
Q 1294 3584 2113 3584 
Q 2378 3584 2631 3529 
Q 2884 3475 3122 3366 
z
" transform="scale(0.015625)"/>
      <path id="DejaVuSans-6d" d="M 3328 2828 
Q 3544 3216 3844 3400 
Q 4144 3584 4550 3584 
Q 5097 3584 5394 3201 
Q 5691 2819 5691 2113 
L 5691 0 
L 5113 0 
L 5113 2094 
Q 5113 2597 4934 2840 
Q 4756 3084 4391 3084 
Q 3944 3084 3684 2787 
Q 3425 2491 3425 1978 
L 3425 0 
L 2847 0 
L 2847 2094 
Q 2847 2600 2669 2842 
Q 2491 3084 2119 3084 
Q 1678 3084 1418 2786 
Q 1159 2488 1159 1978 
L 1159 0 
L 581 0 
L 581 3500 
L 1159 3500 
L 1159 2956 
Q 1356 3278 1631 3431 
Q 1906 3584 2284 3584 
Q 2666 3584 2933 3390 
Q 3200 3197 3328 2828 
z
" transform="scale(0.015625)"/>
      <path id="DejaVuSans-2c" d="M 750 794 
L 1409 794 
L 1409 256 
L 897 -744 
L 494 -744 
L 750 256 
L 750 794 
z
" transform="scale(0.015625)"/>
      <path id="DejaVuSans-7a" d="M 353 3500 
L 3084 3500 
L 3084 2975 
L 922 459 
L 3084 459 
L 3084 0 
L 275 0 
L 275 525 
L 2438 3041 
L 353 3041 
L 353 3500 
z
" transform="scale(0.015625)"/>
      <path id="DejaVuSans-79" d="M 2059 -325 
Q 1816 -950 1584 -1140 
Q 1353 -1331 966 -1331 
L 506 -1331 
L 506 -850 
L 844 -850 
Q 1081 -850 1212 -737 
Q 1344 -625 1503 -206 
L 1606 56 
L 191 3500 
L 800 3500 
L 1894 763 
L 2988 3500 
L 3597 3500 
L 2059 -325 
z
" transform="scale(0.015625)"/>
      <path id="DejaVuSans-2d" d="M 313 2009 
L 1997 2009 
L 1997 1497 
L 313 1497 
L 313 2009 
z
" transform="scale(0.015625)"/>
     </defs>
     <use xlink:href="#DejaVuSans-46"/>
     <use xlink:href="#DejaVuSans-69" transform="translate(50.269531 0)"/>
     <use xlink:href="#DejaVuSans-67" transform="translate(78.052734 0)"/>
     <use xlink:href="#DejaVuSans-75" transform="translate(141.529297 0)"/>
     <use xlink:href="#DejaVuSans-72" transform="translate(204.908203 0)"/>
     <use xlink:href="#DejaVuSans-65" transform="translate(243.771484 0)"/>
     <use xlink:href="#DejaVuSans-20" transform="translate(305.294922 0)"/>
     <use xlink:href="#DejaVuSans-31" transform="translate(337.082031 0)"/>
     <use xlink:href="#DejaVuSans-2e" transform="translate(400.705078 0)"/>
     <use xlink:href="#DejaVuSans-20" transform="translate(432.492188 0)"/>
     <use xlink:href="#DejaVuSans-46" transform="translate(464.279297 0)"/>
     <use xlink:href="#DejaVuSans-4b" transform="translate(521.798828 0)"/>
     <use xlink:href="#DejaVuSans-44" transform="translate(587.375 0)"/>
     <use xlink:href="#DejaVuSans-20" transform="translate(664.376953 0)"/>
     <use xlink:href="#DejaVuSans-70" transform="translate(696.164062 0)"/>
     <use xlink:href="#DejaVuSans-69" transform="translate(759.640625 0)"/>
     <use xlink:href="#DejaVuSans-70" transform="translate(787.423828 0)"/>
     <use xlink:href="#DejaVuSans-65" transform="translate(850.900391 0)"/>
     <use xlink:href="#DejaVuSans-6c" transform="translate(912.423828 0)"/>
     <use xlink:href="#DejaVuSans-69" transform="translate(940.207031 0)"/>
     <use xlink:href="#DejaVuSans-6e" transform="translate(967.990234 0)"/>
     <use xlink:href="#DejaVuSans-65" transform="translate(1031.369141 0)"/>
     <use xlink:href="#DejaVuSans-20" transform="translate(1092.892578 0)"/>
     <use xlink:href="#DejaVuSans-6f" transform="translate(1124.679688 0)"/>
     <use xlink:href="#DejaVuSans-76" transform="translate(1185.861328 0)"/>
     <use xlink:href="#DejaVuSans-65" transform="translate(1245.041016 0)"/>
     <use xlink:href="#DejaVuSans-72" transform="translate(1306.564453 0)"/>
     <use xlink:href="#DejaVuSans-76" transform="translate(1347.677734 0)"/>
     <use xlink:href="#DejaVuSans-69" transform="translate(1406.857422 0)"/>
     <use xlink:href="#DejaVuSans-65" transform="translate(1434.640625 0)"/>
     <use xlink:href="#DejaVuSans-77" transform="translate(1496.164062 0)"/>
     <use xlink:href="#DejaVuSans-3a" transform="translate(1572.451172 0)"/>
     <use xlink:href="#DejaVuSans-20" transform="translate(1606.142578 0)"/>
     <use xlink:href="#DejaVuSans-46" transform="translate(1637.929688 0)"/>
     <use xlink:href="#DejaVuSans-72" transform="translate(1688.199219 0)"/>
     <use xlink:href="#DejaVuSans-61" transform="translate(1729.3125 0)"/>
     <use xlink:href="#DejaVuSans-6e" transform="translate(1790.591797 0)"/>
     <use xlink:href="#DejaVuSans-6b" transform="translate(1853.970703 0)"/>
     <use xlink:href="#DejaVuSans-20" transform="translate(1911.880859 0)"/>
     <use xlink:href="#DejaVuSans-64" transform="translate(1943.667969 0)"/>
     <use xlink:href="#DejaVuSans-65" transform="translate(2007.144531 0)"/>
     <use xlink:href="#DejaVuSans-66" transform="translate(2068.667969 0)"/>
     <use xlink:href="#DejaVuSans-69" transform="translate(2103.873047 0)"/>
     <use xlink:href="#DejaVuSans-6e" transform="translate(2131.65625 0)"/>
     <use xlink:href="#DejaVuSans-65" transform="translate(2195.035156 0)"/>
     <use xlink:href="#DejaVuSans-73" transform="translate(2256.558594 0)"/>
     <use xlink:href="#DejaVuSans-20" transform="translate(2308.658203 0)"/>
     <use xlink:href="#DejaVuSans-74" transform="translate(2340.445312 0)"/>
     <use xlink:href="#DejaVuSans-68" transform="translate(2379.654297 0)"/>
     <use xlink:href="#DejaVuSans-65" transform="translate(2443.033203 0)"/>
     <use xlink:href="#DejaVuSans-20" transform="translate(2504.556641 0)"/>
     <use xlink:href="#DejaVuSans-62" transform="translate(2536.34375 0)"/>
     <use xlink:href="#DejaVuSans-65" transform="translate(2599.820312 0)"/>
     <use xlink:href="#DejaVuSans-6e" transform="translate(2661.34375 0)"/>
     <use xlink:href="#DejaVuSans-63" transform="translate(2724.722656 0)"/>
     <use xlink:href="#DejaVuSans-68" transform="translate(2779.703125 0)"/>
     <use xlink:href="#DejaVuSans-6d" transform="translate(2843.082031 0)"/>
     <use xlink:href="#DejaVuSans-61" transform="translate(2940.494141 0)"/>
     <use xlink:href="#DejaVuSans-72" transform="translate(3001.773438 0)"/>
     <use xlink:href="#DejaVuSans-6b" transform="translate(3042.886719 0)"/>
     <use xlink:href="#DejaVuSans-2c" transform="translate(3100.796875 0)"/>
     <use xlink:href="#DejaVuSans-20" transform="translate(3132.583984 0)"/>
     <use xlink:href="#DejaVuSans-4b" transform="translate(3164.371094 0)"/>
     <use xlink:href="#DejaVuSans-61" transform="translate(3228.197266 0)"/>
     <use xlink:href="#DejaVuSans-72" transform="translate(3289.476562 0)"/>
     <use xlink:href="#DejaVuSans-74" transform="translate(3330.589844 0)"/>
     <use xlink:href="#DejaVuSans-68" transform="translate(3369.798828 0)"/>
     <use xlink:href="#DejaVuSans-69" transform="translate(3433.177734 0)"/>
     <use xlink:href="#DejaVuSans-63" transform="translate(3460.960938 0)"/>
     <use xlink:href="#DejaVuSans-20" transform="translate(3515.941406 0)"/>
     <use xlink:href="#DejaVuSans-66" transform="translate(3547.728516 0)"/>
     <use xlink:href="#DejaVuSans-6f" transform="translate(3582.933594 0)"/>
     <use xlink:href="#DejaVuSans-72" transform="translate(3644.115234 0)"/>
     <use xlink:href="#DejaVuSans-6d" transform="translate(3683.478516 0)"/>
     <use xlink:href="#DejaVuSans-61" transform="translate(3780.890625 0)"/>
     <use xlink:href="#DejaVuSans-6c" transform="translate(3842.169922 0)"/>
     <use xlink:href="#DejaVuSans-69" transform="translate(3869.953125 0)"/>
     <use xlink:href="#DejaVuSans-7a" transform="translate(3897.736328 0)"/>
     <use xlink:href="#DejaVuSans-65" transform="translate(3950.226562 0)"/>
     <use xlink:href="#DejaVuSans-73" transform="translate(4011.75 0)"/>
     <use xlink:href="#DejaVuSans-20" transform="translate(4063.849609 0)"/>
     <use xlink:href="#DejaVuSans-74" transform="translate(4095.636719 0)"/>
     <use xlink:href="#DejaVuSans-68" transform="translate(4134.845703 0)"/>
     <use xlink:href="#DejaVuSans-65" transform="translate(4198.224609 0)"/>
     <use xlink:href="#DejaVuSans-20" transform="translate(4259.748047 0)"/>
     <use xlink:href="#DejaVuSans-72" transform="translate(4291.535156 0)"/>
     <use xlink:href="#DejaVuSans-75" transform="translate(4332.648438 0)"/>
     <use xlink:href="#DejaVuSans-62" transform="translate(4396.027344 0)"/>
     <use xlink:href="#DejaVuSans-72" transform="translate(4459.503906 0)"/>
     <use xlink:href="#DejaVuSans-69" transform="translate(4500.617188 0)"/>
     <use xlink:href="#DejaVuSans-63" transform="translate(4528.400391 0)"/>
     <use xlink:href="#DejaVuSans-2c" transform="translate(4583.380859 0)"/>
     <use xlink:href="#DejaVuSans-20" transform="translate(4615.167969 0)"/>
     <use xlink:href="#DejaVuSans-61" transform="translate(4646.955078 0)"/>
     <use xlink:href="#DejaVuSans-6e" transform="translate(4708.234375 0)"/>
     <use xlink:href="#DejaVuSans-64" transform="translate(4771.613281 0)"/>
     <use xlink:href="#DejaVuSans-20" transform="translate(4835.089844 0)"/>
     <use xlink:href="#DejaVuSans-44" transform="translate(4866.876953 0)"/>
     <use xlink:href="#DejaVuSans-61" transform="translate(4943.878906 0)"/>
     <use xlink:href="#DejaVuSans-73" transform="translate(5005.158203 0)"/>
     <use xlink:href="#DejaVuSans-68" transform="translate(5057.257812 0)"/>
     <use xlink:href="#DejaVuSans-61" transform="translate(5120.636719 0)"/>
     <use xlink:href="#DejaVuSans-20" transform="translate(5181.916016 0)"/>
     <use xlink:href="#DejaVuSans-6d" transform="translate(5213.703125 0)"/>
     <use xlink:href="#DejaVuSans-65" transform="translate(5311.115234 0)"/>
     <use xlink:href="#DejaVuSans-61" transform="translate(5372.638672 0)"/>
     <use xlink:href="#DejaVuSans-73" transform="translate(5433.917969 0)"/>
     <use xlink:href="#DejaVuSans-75" transform="translate(5486.017578 0)"/>
     <use xlink:href="#DejaVuSans-72" transform="translate(5549.396484 0)"/>
     <use xlink:href="#DejaVuSans-65" transform="translate(5588.259766 0)"/>
     <use xlink:href="#DejaVuSans-73" transform="translate(5649.783203 0)"/>
     <use xlink:href="#DejaVuSans-20" transform="translate(5701.882812 0)"/>
     <use xlink:href="#DejaVuSans-72" transform="translate(5733.669922 0)"/>
     <use xlink:href="#DejaVuSans-65" transform="translate(5772.533203 0)"/>
     <use xlink:href="#DejaVuSans-61" transform="translate(5834.056641 0)"/>
     <use xlink:href="#DejaVuSans-73" transform="translate(5895.335938 0)"/>
     <use xlink:href="#DejaVuSans-6f" transform="translate(5947.435547 0)"/>
     <use xlink:href="#DejaVuSans-6e" transform="translate(6008.617188 0)"/>
     <use xlink:href="#DejaVuSans-69" transform="translate(6071.996094 0)"/>
     <use xlink:href="#DejaVuSans-6e" transform="translate(6099.779297 0)"/>
     <use xlink:href="#DejaVuSans-67" transform="translate(6163.158203 0)"/>
     <use xlink:href="#DejaVuSans-20" transform="translate(6226.634766 0)"/>
     <use xlink:href="#DejaVuSans-64" transform="translate(6258.421875 0)"/>
     <use xlink:href="#DejaVuSans-69" transform="translate(6321.898438 0)"/>
     <use xlink:href="#DejaVuSans-76" transform="translate(6349.681641 0)"/>
     <use xlink:href="#DejaVuSans-65" transform="translate(6408.861328 0)"/>
     <use xlink:href="#DejaVuSans-72" transform="translate(6470.384766 0)"/>
     <use xlink:href="#DejaVuSans-73" transform="translate(6511.498047 0)"/>
     <use xlink:href="#DejaVuSans-69" transform="translate(6563.597656 0)"/>
     <use xlink:href="#DejaVuSans-74" transform="translate(6591.380859 0)"/>
     <use xlink:href="#DejaVuSans-79" transform="translate(6630.589844 0)"/>
     <use xlink:href="#DejaVuSans-20" transform="translate(6689.769531 0)"/>
     <use xlink:href="#DejaVuSans-74" transform="translate(6721.556641 0)"/>
     <use xlink:href="#DejaVuSans-68" transform="translate(6760.765625 0)"/>
     <use xlink:href="#DejaVuSans-72" transform="translate(6824.144531 0)"/>
     <use xlink:href="#DejaVuSans-6f" transform="translate(6863.007812 0)"/>
     <use xlink:href="#DejaVuSans-75" transform="translate(6924.189453 0)"/>
     <use xlink:href="#DejaVuSans-67" transform="translate(6987.568359 0)"/>
     <use xlink:href="#DejaVuSans-68" transform="translate(7051.044922 0)"/>
     <use xlink:href="#DejaVuSans-20" transform="translate(7114.423828 0)"/>
     <use xlink:href="#DejaVuSans-63" transform="translate(7146.210938 0)"/>
     <use xlink:href="#DejaVuSans-6c" transform="translate(7201.191406 0)"/>
     <use xlink:href="#DejaVuSans-75" transform="translate(7228.974609 0)"/>
     <use xlink:href="#DejaVuSans-73" transform="translate(7292.353516 0)"/>
     <use xlink:href="#DejaVuSans-74" transform="translate(7344.453125 0)"/>
     <use xlink:href="#DejaVuSans-65" transform="translate(7383.662109 0)"/>
     <use xlink:href="#DejaVuSans-72" transform="translate(7445.185547 0)"/>
     <use xlink:href="#DejaVuSans-69" transform="translate(7486.298828 0)"/>
     <use xlink:href="#DejaVuSans-6e" transform="translate(7514.082031 0)"/>
     <use xlink:href="#DejaVuSans-67" transform="translate(7577.460938 0)"/>
     <use xlink:href="#DejaVuSans-20" transform="translate(7640.9375 0)"/>
     <use xlink:href="#DejaVuSans-61" transform="translate(7672.724609 0)"/>
     <use xlink:href="#DejaVuSans-6e" transform="translate(7734.003906 0)"/>
     <use xlink:href="#DejaVuSans-64" transform="translate(7797.382812 0)"/>
     <use xlink:href="#DejaVuSans-20" transform="translate(7860.859375 0)"/>
     <use xlink:href="#DejaVuSans-72" transform="translate(7892.646484 0)"/>
     <use xlink:href="#DejaVuSans-75" transform="translate(7933.759766 0)"/>
     <use xlink:href="#DejaVuSans-62" transform="translate(7997.138672 0)"/>
     <use xlink:href="#DejaVuSans-72" transform="translate(8060.615234 0)"/>
     <use xlink:href="#DejaVuSans-69" transform="translate(8101.728516 0)"/>
     <use xlink:href="#DejaVuSans-63" transform="translate(8129.511719 0)"/>
     <use xlink:href="#DejaVuSans-2d" transform="translate(8184.492188 0)"/>
     <use xlink:href="#DejaVuSans-61" transform="translate(8220.576172 0)"/>
     <use xlink:href="#DejaVuSans-6c" transform="translate(8281.855469 0)"/>
     <use xlink:href="#DejaVuSans-69" transform="translate(8309.638672 0)"/>
     <use xlink:href="#DejaVuSans-67" transform="translate(8337.421875 0)"/>
     <use xlink:href="#DejaVuSans-6e" transform="translate(8400.898438 0)"/>
     <use xlink:href="#DejaVuSans-65" transform="translate(8464.277344 0)"/>
     <use xlink:href="#DejaVuSans-64" transform="translate(8525.800781 0)"/>
     <use xlink:href="#DejaVuSans-20" transform="translate(8589.277344 0)"/>
     <use xlink:href="#DejaVuSans-65" transform="translate(8621.064453 0)"/>
     <use xlink:href="#DejaVuSans-6e" transform="translate(8682.587891 0)"/>
     <use xlink:href="#DejaVuSans-73" transform="translate(8745.966797 0)"/>
     <use xlink:href="#DejaVuSans-65" transform="translate(8798.066406 0)"/>
     <use xlink:href="#DejaVuSans-6d" transform="translate(8859.589844 0)"/>
     <use xlink:href="#DejaVuSans-62" transform="translate(8957.001953 0)"/>
     <use xlink:href="#DejaVuSans-6c" transform="translate(9020.478516 0)"/>
     <use xlink:href="#DejaVuSans-65" transform="translate(9048.261719 0)"/>
     <use xlink:href="#DejaVuSans-20" transform="translate(9109.785156 0)"/>
     <use xlink:href="#DejaVuSans-65" transform="translate(9141.572266 0)"/>
     <use xlink:href="#DejaVuSans-76" transform="translate(9203.095703 0)"/>
     <use xlink:href="#DejaVuSans-61" transform="translate(9262.275391 0)"/>
     <use xlink:href="#DejaVuSans-6c" transform="translate(9323.554688 0)"/>
     <use xlink:href="#DejaVuSans-75" transform="translate(9351.337891 0)"/>
     <use xlink:href="#DejaVuSans-61" transform="translate(9414.716797 0)"/>
     <use xlink:href="#DejaVuSans-74" transform="translate(9475.996094 0)"/>
     <use xlink:href="#DejaVuSans-69" transform="translate(9515.205078 0)"/>
     <use xlink:href="#DejaVuSans-6f" transform="translate(9542.988281 0)"/>
     <use xlink:href="#DejaVuSans-6e" transform="translate(9604.169922 0)"/>
     <use xlink:href="#DejaVuSans-2e" transform="translate(9667.548828 0)"/>
    </g>
   </g>
  </g>
 </g>
 <defs>
  <clipPath id="pbeb1749fc6">
   <rect x="221.080938" y="7.2" width="542.16" height="252"/>
  </clipPath>
 </defs>
</svg>
